<svg xmlns="http://www.w3.org/2000/svg" width="20" height="20" viewBox="0 0 20 20">
  <g id="qustion-circle-svgrepo-com" transform="translate(-2 -2)">
    <path id="Path_1" data-name="Path 1" d="M12,3.538A8.462,8.462,0,1,0,20.462,12,8.462,8.462,0,0,0,12,3.538ZM2,12A10,10,0,1,1,12,22,10,10,0,0,1,2,12Z" fill="#fff" fill-rule="evenodd"/>
    <path id="Path_2" data-name="Path 2" d="M12,8.154a1.282,1.282,0,0,0-1.282,1.282.769.769,0,0,1-1.538,0,2.821,2.821,0,1,1,5.194,1.525,9.22,9.22,0,0,1-.576.776l-.1.128c-.159.2-.3.377-.439.562a1.985,1.985,0,0,0-.486,1.112.769.769,0,0,1-1.538,0,3.462,3.462,0,0,1,.78-2.017c.16-.22.335-.436.494-.633l.094-.116a7.817,7.817,0,0,0,.481-.644A1.282,1.282,0,0,0,12,8.154Z" fill="#fff" fill-rule="evenodd"/>
    <path id="Path_3" data-name="Path 3" d="M13.026,16.615A1.026,1.026,0,1,1,12,15.59,1.026,1.026,0,0,1,13.026,16.615Z" fill="#fff"/>
  </g>
</svg>
